<?xml version="1.0" standalone="no"?>
<!DOCTYPE svg PUBLIC "-//W3C//DTD SVG 1.1//EN" "http://www.w3.org/Graphics/SVG/1.1/DTD/svg11.dtd" >
<!--
2013-9-30: Created.
-->
<svg>
<metadata>
Created by iconfont
</metadata>
<defs>

<font id="iconfont" horiz-adv-x="1024" >
  <font-face
    font-family="iconfont"
    font-weight="500"
    font-stretch="normal"
    units-per-em="1024"
    ascent="896"
    descent="-128"
  />
    <missing-glyph />
    
    <glyph glyph-name="iconfontxitongshezhi" unicode="&#58955;" d="M375.606627-22.523601 240.469413-22.523601 240.469413-98.798798 451.734517-98.798798 378.529309-25.597613ZM351.786152 157.183294 109.700873 157.183294 109.700873 641.446579 850.476998 641.446579 850.476998 461.316036 902.817161 498.696388 959.327468 442.18942 959.327468 745.908746 0.850402 745.908746 0.850402 41.6817 351.786152 41.6817ZM1023.148574 98.307372 1023.148574 211.148369l-86.168982 14.347776c-3.503944 10.642384-7.777446 20.935822-12.731474 30.825053l50.771371 71.045079-79.781243 79.777975-70.958959-50.677193c-9.925453 5.028527-20.290947 9.320273-31.008472 12.842493l-14.348364 86.016049L666.073759 455.325601l-14.3105-85.97921c-10.717525-3.52222-21.046178-7.851828-30.972654-12.842493l-70.956912 50.677193-79.763846-79.760578 50.751927-71.062476c-4.953005-9.888208-9.2306-20.181645-12.731474-30.824029l-86.205823-14.423501 0-112.840998 86.387979-14.384615c3.505991-10.568706 7.742652-20.75265 12.716124-30.549783l-50.917709-71.338768 79.763846-79.758532 71.450166 51.02614c9.725901-4.89959 19.909238-9.139148 30.404696-12.58769l14.423069-86.585007 112.847668 0 14.438419 86.585007c10.477038 3.448542 20.624558 7.65126 30.388323 12.58769l71.450166-51.04456 79.781243 79.776951-50.9392 71.319325c4.976542 9.816576 9.214227 20.00052 12.718171 30.549783L1023.148574 98.307372zM722.516525 64.904611c-49.613964 0-89.804938 40.189328-89.804938 89.803305 0 49.617048 40.189951 89.804329 89.804938 89.804329 49.616011 0 89.806985-40.186258 89.806985-89.804329C812.32351 105.093938 772.132536 64.904611 722.516525 64.904611z"  horiz-adv-x="1024" />

    
    <glyph glyph-name="sousuo" unicode="&#58902;" d="M689.979042 617.702805C553.099558 754.581266 331.17412 754.581266 194.29566 617.701782c-136.87846-136.87846-136.87846-358.801852 0-495.681336 124.758422-124.757398 320.154647-135.782499 457.426057-33.120328l203.079208-203.078185c8.243755-8.243755 21.732977-8.243755 29.976732 0l41.400922 41.400922c8.244778 8.244778 8.244778 21.731954 0 29.976732L723.100394 160.278795C825.761542 297.548158 814.737464 492.944384 689.979042 617.702805zM640.41009 171.589398c-109.502973-109.502973-287.042505-109.502973-396.546501 0.001023-109.502973 109.50195-109.502973 287.041482 0 396.544455 109.502973 109.502973 287.044552 109.503996 396.547525 0.001023S749.914086 281.091348 640.41009 171.589398z"  horiz-adv-x="1024" />

    
    <glyph glyph-name="export" unicode="&#58968;" d="M759.968 160.208l81.376 58.16v-288.704h-825.344v806h298.352l-92.992-81.392h-124v-641.296h662.608l0 147.232zM246.544 266.784c-3.872-5.168-8.72-7.12-14.544-5.776-5.792 1.264-8.72 5.12-8.72 11.616 14.192 69.728 31.952 128.16 53.296 175.328 21.312 47.136 49.056 88.48 83.312 124 34.224 35.52 77.52 61.344 129.792 77.52 52.336 16.128 115.296 24.24 188.944 24.24v164.624l329.376-288.688-329.392-288.672v164.688c-43.936 0-81.696-1.296-113.36-3.872-31.664-2.608-67.792-9.056-108.48-19.392-40.672-10.336-78.768-26.832-114.304-49.408-35.552-22.624-67.52-51.328-95.92-86.208z"  horiz-adv-x="1024" />

    
    <glyph glyph-name="iconfontxiazai" unicode="&#59223;" d="M784.699077 399.044923C778.633846 413.774769 764.219077 423.384615 748.307692 423.384615l-472.615385 0C259.780923 423.384615 245.366154 413.774769 239.300923 399.044923 233.156923 384.393846 236.544 367.379692 247.808 356.115692l236.307692-236.307692C491.835077 112.167385 501.917538 108.307692 512 108.307692s20.164923 3.859692 27.884308 11.500308l236.307692 236.307692C787.377231 367.379692 790.764308 384.393846 784.699077 399.044923zM512 896c-43.480615 0-78.769231-35.209846-78.769231-78.769231l0-393.846154c0-43.559385 35.288615-78.769231 78.769231-78.769231 43.559385 0 78.769231 35.209846 78.769231 78.769231L590.769231 817.230769C590.769231 860.790154 555.559385 896 512 896zM945.230769 29.538462 78.769231 29.538462c-43.480615 0-78.769231-35.209846-78.769231-78.769231s35.288615-78.769231 78.769231-78.769231l866.461538 0c43.559385 0 78.769231 35.209846 78.769231 78.769231S988.790154 29.538462 945.230769 29.538462z"  horiz-adv-x="1024" />

    
    <glyph glyph-name="sub" unicode="&#58947;" d="M903.053 325.25h-782.007c-32.391 0-58.649 26.256-58.649 58.647s26.256 58.661 58.649 58.661h782.009c32.406 0 58.649-26.27 58.649-58.661-0.001-32.393-26.245-58.647-58.649-58.647z"  horiz-adv-x="1024" />

    
    <glyph glyph-name="bk-list2" unicode="&#58905;" d="M49.344 680.672c0-48.23 39.098-87.328 87.328-87.328s87.328 39.098 87.328 87.328c0 48.23-39.098 87.328-87.328 87.328-48.23 0-87.328-39.098-87.328-87.328zM992 680c0-30.928-25.072-56-56-56h-592c-30.928 0-56 25.072-56 56v0c0 30.928 25.072 56 56 56h592c30.928 0 56-25.072 56-56v0zM49.344 376.672c0-48.23 39.098-87.328 87.328-87.328s87.328 39.098 87.328 87.328c0 48.23-39.098 87.328-87.328 87.328-48.23 0-87.328-39.098-87.328-87.328zM992 376c0-30.944-25.072-56-56-56h-592c-30.928 0-56 25.056-56 56v0c0 30.928 25.072 56 56 56h592c30.928 0 56-25.072 56-56v0zM49.344 88.656c0-48.23 39.098-87.328 87.328-87.328s87.328 39.098 87.328 87.328c0 48.23-39.098 87.328-87.328 87.328-48.23 0-87.328-39.098-87.328-87.328zM992 88c0-30.944-25.072-56-56-56h-592c-30.928 0-56 25.056-56 56v0c0 30.944 25.072 56 56 56h592c30.928 0 56-25.056 56-56v0z"  horiz-adv-x="1024" />

    
    <glyph glyph-name="rili" unicode="&#58914;" d="M942.933333 802.133333 896 802.133333 896 814.933333c0 42.666667-34.133333 81.066667-81.066667 81.066667l0 0c-42.666667 0-81.066667-34.133333-81.066667-81.066667l0-12.8L290.133333 802.133333 290.133333 814.933333C290.133333 861.866667 256 896 209.066667 896l0 0C166.4 896 128 861.866667 128 814.933333l0-12.8L81.066667 802.133333C34.133333 802.133333 0 763.733333 0 721.066667l0-768c0-42.666667 34.133333-81.066667 81.066667-81.066667l861.866667 0c42.666667 0 81.066667 34.133333 81.066667 81.066667l0 768C1024 763.733333 989.866667 802.133333 942.933333 802.133333M763.733333 814.933333c0 25.6 21.333333 46.933333 46.933333 46.933333l0 0c25.6 0 46.933333-21.333333 46.933333-46.933333l0-140.8c0-25.6-21.333333-46.933333-46.933333-46.933333l0 0c-25.6 0-46.933333 21.333333-46.933333 46.933333L763.733333 814.933333 763.733333 814.933333zM162.133333 814.933333c0 25.6 21.333333 46.933333 46.933333 46.933333l0 0c25.6 0 46.933333-21.333333 46.933333-46.933333l0-140.8c0-25.6-21.333333-46.933333-46.933333-46.933333l0 0c-25.6 0-46.933333 21.333333-46.933333 46.933333L162.133333 814.933333 162.133333 814.933333zM942.933333-64 81.066667-64c-8.533333 0-17.066667 8.533333-17.066667 17.066667L64 516.266667l896 0 0-563.2C960-55.466667 951.466667-64 942.933333-64M183.466667 401.066667l149.333333 0 0-72.533333L183.466667 328.533333 183.466667 401.066667 183.466667 401.066667zM183.466667 401.066667M439.466667 401.066667l145.066667 0 0-72.533333-145.066667 0L439.466667 401.066667 439.466667 401.066667zM439.466667 401.066667M695.466667 401.066667l145.066667 0 0-72.533333-145.066667 0L695.466667 401.066667 695.466667 401.066667zM695.466667 401.066667M183.466667 256l149.333333 0 0-72.533333L183.466667 183.466667 183.466667 256 183.466667 256zM183.466667 256M439.466667 256l145.066667 0 0-72.533333-145.066667 0L439.466667 256 439.466667 256zM439.466667 256M695.466667 256l145.066667 0 0-72.533333-145.066667 0L695.466667 256 695.466667 256zM695.466667 256M183.466667 110.933333l149.333333 0 0-76.8L183.466667 34.133333 183.466667 110.933333 183.466667 110.933333zM183.466667 110.933333M439.466667 110.933333l145.066667 0 0-76.8-145.066667 0L439.466667 110.933333 439.466667 110.933333zM439.466667 110.933333M695.466667 110.933333l145.066667 0 0-76.8-145.066667 0L695.466667 110.933333 695.466667 110.933333zM695.466667 110.933333"  horiz-adv-x="1024" />

    
    <glyph glyph-name="rili1" unicode="&#58934;" d="M217.30432 205.73952l-25.56544 0c-21.1776 0-38.34752-17.16992-38.34752-38.34752l0-25.56544c0-21.1776 17.16992-38.34752 38.34752-38.34752l25.56544 0c21.17888 0 38.34752 17.16992 38.34752 38.34752l0 25.56544C255.65184 188.5696 238.48192 205.73952 217.30432 205.73952zM217.30432 435.82592l-25.56544 0c-21.1776 0-38.34752-17.16992-38.34752-38.34752l0-25.56544c0-21.1776 17.16992-38.34752 38.34752-38.34752l25.56544 0c21.17888 0 38.34752 17.16992 38.34752 38.34752L255.65184 397.4784C255.65184 418.65728 238.48192 435.82592 217.30432 435.82592zM971.47776 819.30496 818.0864 819.30496l0-63.91296c0-21.1776-17.16992-38.34752-38.34752-38.34752l-25.56544 0c-21.1776 0-38.34752 17.16992-38.34752 38.34752L715.82592 819.30496 306.78272 819.30496l0-63.91296c0-21.1776-17.16992-38.34752-38.34752-38.34752l-25.56544 0c-21.1776 0-38.34752 17.16992-38.34752 38.34752L204.52224 819.30496 51.13088 819.30496C22.89152 819.30496 0 796.41344 0 768.17408l0-843.65184c0-28.23936 22.89152-51.13088 51.13088-51.13088l460.17408 0 163.5968 0 2.66496 0c220.62976 0 339.21536 147.83616 344.81408 306.4448 0.07424 0.11392 0.15488 0.22272 0.22912 0.33664l0 11.45088L1022.60992 256.8704 1022.60992 768.17408C1022.60864 796.41344 999.71712 819.30496 971.47776 819.30496zM733.80736-68.74112C759.45216-30.25024 782.12992 29.93024 774.4 119.04c0 0 105.4528-22.32064 184.67456 10.45376C930.70976 25.41568 854.07872-47.10656 733.80736-68.74112zM971.47776 227.4304c0-9.7408-0.34304-19.3024-0.98688-28.69504-43.05792-26.19264-119.872-45.79328-254.66624-18.56 0 0 34.85056-168.31872-56.01408-255.6032-1.74976-0.01792-3.488-0.04864-5.25184-0.04864L76.69504-75.47648c-14.11968 0-25.56544 11.44576-25.56544 25.56544L51.1296 563.65184c0 14.11968 11.44576 25.56544 25.56544 25.56544l869.21728 0c14.11968 0 25.56544-11.44576 25.56544-25.56544L971.47776 227.4304zM830.86976 435.82592l-25.56544 0c-21.1776 0-38.34752-17.16992-38.34752-38.34752l0-25.56544c0-21.1776 17.16992-38.34752 38.34752-38.34752l25.56544 0c21.1776 0 38.34752 17.16992 38.34752 38.34752L869.21728 397.4784C869.21728 418.65728 852.04736 435.82592 830.86976 435.82592zM421.82528 205.73952l-25.56544 0c-21.1776 0-38.34752-17.16992-38.34752-38.34752l0-25.56544c0-21.1776 17.16992-38.34752 38.34752-38.34752l25.56544 0c21.17888 0 38.34752 17.16992 38.34752 38.34752l0 25.56544C460.17408 188.5696 443.00416 205.73952 421.82528 205.73952zM626.34752 435.82592l-25.56544 0c-21.1776 0-38.34752-17.16992-38.34752-38.34752l0-25.56544c0-21.1776 17.16992-38.34752 38.34752-38.34752l25.56544 0c21.1776 0 38.34752 17.16992 38.34752 38.34752L664.69504 397.4784C664.69504 418.65728 647.5264 435.82592 626.34752 435.82592zM421.82528 435.82592l-25.56544 0c-21.1776 0-38.34752-17.16992-38.34752-38.34752l0-25.56544c0-21.1776 17.16992-38.34752 38.34752-38.34752l25.56544 0c21.17888 0 38.34752 17.16992 38.34752 38.34752L460.1728 397.4784C460.17408 418.65728 443.00416 435.82592 421.82528 435.82592zM754.17344 742.60864l25.56544 0c7.0592 0 12.78208 5.7216 12.78208 12.78208L792.52096 883.21792c0 7.05792-5.72416 12.78208-12.78208 12.78208l-25.56544 0c-7.0592 0-12.78208-5.72416-12.78208-12.78208l0-127.82592C741.39136 748.33024 747.11552 742.60864 754.17344 742.60864zM242.86976 742.60864l25.56544 0c7.05792 0 12.78208 5.7216 12.78208 12.78208L281.21728 883.21792c0 7.05792-5.72416 12.78208-12.78208 12.78208l-25.56544 0c-7.05792 0-12.78208-5.72416-12.78208-12.78208l0-127.82592C230.0864 748.33024 235.81056 742.60864 242.86976 742.60864z"  horiz-adv-x="1024" />

    
    <glyph glyph-name="biaoge" unicode="&#58909;" d="M965.964212-125.953388c32.04074 0 58.014298 25.922393 58.014298 57.898665L1023.978511 838.101335c0 31.976272-25.973558 57.898665-58.014298 57.898665L58.035788 896c-32.04074 0-58.014298-25.922393-58.014298-57.898665l0-906.157081c0-31.976272 25.973558-57.898665 58.014298-57.898665M247.304456-84.081745 101.704356-84.081745c-29.030174 0-52.564169 23.486924-52.564169 52.459792L49.140187 176.34559l198.164269 0L247.304456-84.081745zM247.304456 226.387309 49.140187 226.387309 49.140187 456.14718l198.164269 0L247.304456 226.387309zM247.304456 505.165594 49.140187 505.165594 49.140187 727.252715l198.164269 0L247.304456 505.165594zM489.313302-84.081745 299.493072-84.081745 299.493072 176.34559l189.82023 0L489.313302-84.081745zM489.313302 226.387309 299.493072 226.387309 299.493072 456.14718l189.82023 0L489.313302 226.387309zM489.313302 505.165594 299.493072 505.165594 299.493072 727.252715l189.82023 0L489.313302 505.165594zM541.501918-84.081745 541.501918 176.34559l189.82023 0 0-260.427334M731.322148 226.387309 541.501918 226.387309 541.501918 456.14718l189.82023 0L731.322148 226.387309zM731.322148 505.165594 541.501918 505.165594 541.501918 727.252715l189.82023 0L731.322148 505.165594zM976.910519-31.621952c0-28.972868-23.533996-52.459792-52.564169-52.459792L783.510764-84.081745 783.510764 176.34559l193.399755 0L976.910519-31.621952zM976.910519 226.387309 783.510764 226.387309 783.510764 456.14718l193.399755 0L976.910519 226.387309zM976.910519 505.165594 783.510764 505.165594 783.510764 727.252715l193.399755 0L976.910519 505.165594z"  horiz-adv-x="1024" />

    
    <glyph glyph-name="manager" unicode="&#58887;" d="M838.096 341.92c1.76 13.728 3.072 27.472 3.072 42.064 0 14.608-1.312 28.336-3.072 42.08l92.576 70.832c8.336 6.432 10.528 18.032 5.264 27.472l-87.76 148.544c-5.264 9.456-17.104 12.88-26.768 9.456l-109.248-42.944c-22.816 17.168-47.392 31.344-74.144 42.08l-16.672 113.776c-1.312 10.304-10.528 18.032-21.504 18.032L424.336 813.312c-10.96 0-20.176-7.728-21.504-18.032l-16.672-113.776c-26.768-10.736-51.328-25.328-74.144-42.08l-109.248 42.944c-10.096 3.856-21.504 0-26.768-9.456l-87.76-148.544c-5.696-9.44-3.072-21.04 5.264-27.472l92.576-70.832c-1.76-13.744-3.072-27.904-3.072-42.08 0-14.16 1.328-28.336 3.072-42.064l-92.576-70.832c-8.336-6.448-10.528-18.032-5.264-27.488L176 95.056c5.264-9.44 17.104-12.88 26.768-9.44l109.248 42.944c22.816-17.184 47.392-31.344 74.144-42.08l16.672-113.776c1.328-10.304 10.544-18.032 21.504-18.032L599.84-45.328c10.976 0 20.176 7.728 21.504 18.032l16.672 113.776c26.768 10.736 51.328 25.328 74.144 42.08l109.248-42.944c10.096-3.872 21.488 0 26.768 9.44l87.76 148.544c5.264 9.44 3.072 21.04-5.264 27.488L838.096 341.92 838.096 341.92zM512.096 233.744c-84.672 0-153.568 67.408-153.568 150.256s68.896 150.272 153.568 150.272c84.688 0 153.568-67.408 153.568-150.272S596.784 233.744 512.096 233.744L512.096 233.744z"  horiz-adv-x="1024" />

    
    <glyph glyph-name="xiangshang-copy-copy" unicode="&#58943;" d="M260.983 369.429c-12.874 13.118-35.033 13.118-48.394 0-13.606-13.606-13.606-35.196 0-48.639l273.747-274.154c13.606-13.117 35.441-13.118 48.802 0l273.908 274.155c13.362 13.362 13.361 35.033 0 48.638-13.606 13.118-35.033 13.118-48.638 0l-249.386-249.875-250.038 249.875zM260.983 369.429zM260.983 678.29c-12.874 13.118-35.033 13.118-48.394 0-13.606-13.606-13.606-35.196 0-48.638l273.747-274.154c13.606-13.117 35.441-13.118 48.802 0l273.908 274.155c13.362 13.362 13.361 35.033 0 48.638-13.606 13.118-35.033 13.118-48.638 0l-249.387-249.876-250.039 249.876zM260.983 678.29z"  horiz-adv-x="1024" />

    
    <glyph glyph-name="sousuo1" unicode="&#59158;" d="M385.662338 776.311688C232.727273 776.311688 106.38961 649.974026 106.38961 497.038961c0-152.935065 126.337662-279.272727 279.272727-279.272727 152.935065 0 279.272727 126.337662 279.272727 279.272727C664.935065 649.974026 538.597403 776.311688 385.662338 776.311688zM984.103896 31.584416c19.948052-19.948052 26.597403-39.896104 26.597403-66.493506 0-53.194805-39.896104-93.090909-93.090909-93.090909-26.597403 0-46.545455 13.298701-66.493506 26.597403l-272.623377 272.623377c-53.194805-33.246753-119.688312-53.194805-186.181818-53.194805C179.532468 118.025974 13.298701 290.909091 13.298701 497.038961c0 206.12987 166.233766 372.363636 372.363636 372.363636 206.12987 0 372.363636-166.233766 372.363636-372.363636 0-66.493506-19.948052-132.987013-53.194805-186.181818L984.103896 31.584416z"  horiz-adv-x="1024" />

    
    <glyph glyph-name="fenxi" unicode="&#58888;" d="M513.68078 769.998261l-62.804395-1.595334C235.12353 752.614335 64.344982 573.178617 64.344982 353.680461c0-229.901087 186.334849-416.257425 416.592047-416.257425 219.845057 0 399.311475 170.918741 415.219793 386.365628l1.37123 62.590524L513.68078 386.379187 513.68078 769.998261zM834.150606 322.575022c-15.616676-191.397145-167.803797-323.647191-353.49908-323.647191-196.11254 0-355.135346 158.853961-355.135346 354.685092 0 185.43434 132.60411 337.497641 324.274478 353.127619l0-384.166543L834.150606 322.573999zM545.624307 831.629947 545.624307 418.276664l413.655158 0C959.280488 641.573333 769.238201 831.629947 545.624307 831.629947zM609.514429 765.309472c31.943526-4.561899 49.356105-12.155854 74.275657-22.679535 42.35362-17.862833 78.902024-43.484374 111.579261-76.116585 32.6844-32.633235 57.603953-67.812455 75.517951-110.11184 10.54517-24.880667 17.384949-42.429345 21.982664-74.326822L609.514429 482.074689 609.514429 765.309472z"  horiz-adv-x="1024" />

    
    <glyph glyph-name="question" unicode="&#58627;" d="M510.92 789.214c-246.798 0-446.876-200.078-446.876-446.876s200.078-446.876 446.876-446.876c246.798 0 446.876 200.078 446.876 446.876s-200.078 446.876-446.876 446.876zM510.92-51.964c-217.766 0-394.302 176.538-394.302 394.302s176.538 394.302 394.302 394.302c217.765 0 394.301-176.538 394.301-394.302s-176.537-394.302-394.301-394.302zM484.633 105.757h52.573v52.573h-52.573v-52.573zM510.92 578.92c-80.581-2.079-131.434-60.762-131.434-157.72h52.574c0 57.066 17.135 105.147 78.86 105.147 62.020 0 78.86-37.504 78.86-78.86 0-43.281-18.046-51.829-52.574-78.86-38.352-31.55-53.857-60.095-52.573-105.148v-52.573h52.573v52.573c-2.591 25.517 6.546 32.448 32.14 51.984 49.878 40.56 73.008 75.062 73.008 132.025 0.001 81.117-49.159 131.432-131.433 131.432z"  horiz-adv-x="1024" />

    
    <glyph glyph-name="daoruwenjian--" unicode="&#58910;" d="M705.66464 614.4c25.6 0 38.4-19.2 38.4-44.8v-76.8l115.2 179.2c12.8 12.8 12.8 38.4 0 51.2L744.06464 896v-64c0-25.6-19.2-44.8-44.8-44.8-108.8 0-390.4-44.8-428.8-422.4h32c128 249.6 320 262.4 403.2 249.6zM724.86464 236.8c0 12.8-19.2 19.2-38.4 19.2H27.26464c-19.2 0-32-6.4-25.6-19.2l108.8-339.2c6.4-12.8 25.6-25.6 44.8-25.6h659.2c19.2 0 32 12.8 25.6 25.6l-115.2 339.2zM270.46464 384h-38.4c-38.4 0-64-25.6-64-64H769.66464s44.8 0 44.8-44.8c0-25.6 0-51.2 6.4-76.8L897.66464 0V384s0 64-64 64h-192c-25.6 0-44.8-6.4-51.2-32-12.8-19.2-32-32-51.2-32H296.06464"  horiz-adv-x="1025" />

    
    <glyph glyph-name="xiazai" unicode="&#58969;" d="M768.35456 480a256 256 0 1 1-512 0 192 192 0 1 1 0-384v-64a256 256 0 0 0-58.88 505.216 320.128 320.128 0 0 0 629.76 0A256.128 256.128 0 0 0 768.35456 32v64a192 192 0 0 1 0 384z m-512-384h64v-64H256.35456v64z m448 0h64v-64h-64v64zM539.04256 50.752V383.808a32.448 32.448 0 0 1-32 32.192c-17.664 0-32-14.912-32-32.192v-333.056l-36.096 36.096a32.192 32.192 0 0 1-45.056-0.192 31.616 31.616 0 0 1-0.192-45.056l90.88-90.944a31.36 31.36 0 0 1 22.528-9.088 30.08 30.08 0 0 1 22.4 9.088l90.88 90.88a32.192 32.192 0 0 1-0.192 45.12 31.616 31.616 0 0 1-45.056 0.192l-36.096-36.096z"  horiz-adv-x="1024" />

    
    <glyph glyph-name="right" unicode="&#58890;" d="M653.056 336.896l-302.080-258.944c-37.312-32-94.976-5.44-94.976 43.712v517.824c0 49.152 57.664 75.648 94.976 43.648l302.080-258.944c26.752-22.912 26.752-64.321 0-87.297z"  horiz-adv-x="1024" />

    
    <glyph glyph-name="xiazai1" unicode="&#58984;" d="M984.615385-128H39.384615a39.384615 39.384615 0 0 0-34.973538 21.188923v0.078769A38.990769 38.990769 0 0 0 0-88.615385v315.076923a39.384615 39.384615 0 0 0 78.769231 0V-49.230769h866.461538V226.461538a39.384615 39.384615 0 0 0 78.769231 0v-315.076923c0-6.537846-1.575385-12.681846-4.411077-18.116923v-0.078769A39.384615 39.384615 0 0 0 984.615385-128zM472.615385 242.215385V856.615385a39.384615 39.384615 0 0 0 78.76923 0v-614.4l323.190154 323.190153a39.384615 39.384615 0 0 0 55.689846-55.689846l-389.828923-389.907692a39.620923 39.620923 0 0 0-27.56923-11.500308H512a39.148308 39.148308 0 0 0-27.490462 11.185231 39.148308 39.148308 0 0 0-4.332307 3.780923l-389.907693 389.828923a39.384615 39.384615 0 0 0 55.768616 55.689846L472.615385 242.215385z"  horiz-adv-x="1024" />

    
    <glyph glyph-name="dingzhimoxing" unicode="&#58883;" d="M555.674 348.98V-128L1024 111.309V588.288L555.674 348.979zM0 111.308L468.326-128V352.102L0 591.36v-480.051zM512 896L45.21 657.51l469.81-240.025 466.791 238.49L512 896z"  horiz-adv-x="1024" />

    
    <glyph glyph-name="xiangshang" unicode="&#59279;" d="M487.610182 834.094545L487.796364 834.280727l59.578181-59.392-0.186181-0.186182 415.185454-414.254545-59.485091-59.298909L487.796364 715.403636 70.935273 299.473455l-59.578182 59.392 416.954182 416.023272-0.186182 0.186182 59.392 59.205818 0.093091-0.186182zM487.610182 468.433455l0.186182 0.09309 59.578181-59.392-0.186181-0.186181 415.185454-414.254546-59.485091-59.205818-415.092363 414.254545-416.861091-416.116363-59.578182 59.578182L428.404364 409.134545l-0.186182 0.186182 59.392 59.205818 0.093091-0.09309z"  horiz-adv-x="1024" />

    
    <glyph glyph-name="zuojiantou" unicode="&#58727;" d="M318.136 356.452l357.115-347.278c10.203-6.676 20.406-6.676 25.509 0 10.204 6.68 15.306 20.037 15.306 26.714v694.555c0 13.356-6.276 33.393-21.539 33.393-5.102 0-14.175 0-19.276-6.678l-357.115-347.278c-5.101-6.678-10.203-20.035-10.203-26.713 0-6.676 5.101-20.034 10.203-26.713z"  horiz-adv-x="1024" />

    
    <glyph glyph-name="Paas_icon-" unicode="&#58945;" d="M516.992 25.664l-32-8.064v110.4h64v-110.72zM516.992 768c-17.673 0-32 14.327-32 32v64c0 17.673 14.327 32 32 32s32-14.327 32-32v-64c0-17.673-14.327-32-32-32zM704-96c-0.023-0-0.050-0-0.078-0-3.33 0-6.54 0.515-9.554 1.469l-177.504 54.723-185.024-54.912c-2.73-0.842-5.868-1.326-9.12-1.326-17.681 0-32.014 14.333-32.014 32.014 0 14.43 9.546 26.629 22.668 30.629l194.531 57.723c2.715 0.813 5.835 1.281 9.064 1.281 3.388 0 6.655-0.515 9.728-1.471l186.776-57.602c13.282-4.069 22.774-16.223 22.774-30.594 0-17.638-14.298-31.936-31.936-31.936-0.109 0-0.218 0.001-0.326 0.002zM928 128h-832c-52.928 0-96 43.072-96 96v512c0 52.928 43.072 96 96 96h832c52.928 0 96-43.072 96-96v-512c0-52.928-43.072-96-96-96zM96 768c-17.6 0-32-14.4-32-32v-512c0-17.6 14.4-32 32-32h832c17.6 0 32 14.4 32 32v512c0 17.6-14.4 32-32 32h-832zM420.992 313.024c-0.001-0-0.003-0-0.004-0-8.839 0-16.844 3.569-22.653 9.345l-198.975 198.975c-5.558 5.749-8.983 13.59-8.983 22.231 0 17.673 14.327 32 32 32 8.641 0 16.482-3.425 22.24-8.991l176.375-176.375 171.392 171.392c5.791 5.789 13.789 9.369 22.624 9.369s16.833-3.58 22.624-9.369l190.528-190.528c5.558-5.749 8.983-13.59 8.983-22.231 0-17.673-14.327-32-32-32-8.641 0-16.482 3.425-22.24 8.991l-167.927 167.927-171.328-171.392c-5.769-5.773-13.74-9.344-22.546-9.344-0.039 0-0.077 0-0.116 0z"  horiz-adv-x="1024" />

    
    <glyph glyph-name="wenti" unicode="&#58944;" d="M536.484591 896C243.757705 896 19.587673 687.064825 19.587673 431.336876c0-164.31881 72.909671-292.726886 186.08289-387.400638v-171.936238L366.724761-18.091392c40.263549-7.617428 128.408077-14.146652 168.671626-14.146653 285.109458 0 467.927736 208.935175 467.927736 464.663125C1004.412327 687.064825 770.448459 896 536.484591 896z m-304.697131-537.572795c-40.263549 0-69.645058 32.646121-69.645058 72.909671s32.646121 72.909671 69.645058 72.90967c40.263549 0 69.645058-32.646121 69.645059-72.90967s-29.381509-72.909671-69.645059-72.909671z m281.844846 0c-40.263549 0-69.645058 32.646121-69.645058 72.909671s32.646121 72.909671 69.645058 72.90967c40.263549 0 69.645058-32.646121 69.645059-72.90967s-29.381509-72.909671-69.645059-72.909671z m281.844846 0c-40.263549 0-69.645058 32.646121-69.645058 72.909671s32.646121 72.909671 69.645058 72.90967c40.263549 0 69.645058-32.646121 69.645058-72.90967s-32.646121-72.909671-69.645058-72.909671z"  horiz-adv-x="1024" />

    
    <glyph glyph-name="mulu" unicode="&#58911;" d="M870.4 896H153.6a102.4 102.4 0 0 1-102.4-102.4v-819.2a102.4 102.4 0 0 1 102.4-102.4h716.8a102.4 102.4 0 0 1 102.4 102.4V793.6a102.4 102.4 0 0 1-102.4 102.4zM307.2 76.8H204.8v102.4h102.4z m0 256H204.8V435.2h102.4z m0 256H204.8V691.2h102.4z m512-512H409.6v102.4h409.6z m0 256H409.6V435.2h409.6z m0 256H409.6V691.2h409.6z"  horiz-adv-x="1024" />

    
    <glyph glyph-name="fenxi1" unicode="&#58991;" d="M966.4-6.4H89.6V800c0 12.8-12.8 25.6-25.6 25.6s-25.6-12.8-25.6-25.6v-832c0-12.8 12.8-25.6 25.6-25.6h902.4c12.8 0 25.6 12.8 25.6 25.6s-12.8 25.6-25.6 25.6zM230.4 70.4h32c19.2 0 32 12.8 32 32V390.4c0 19.2-12.8 32-32 32h-32c-19.2 0-38.4-12.8-38.4-32v-288c0-19.2 19.2-32 38.4-32z m204.8 0h32c19.2 0 32 12.8 32 32V588.8c0 19.2-12.8 32-32 32h-32c-19.2 0-32-12.8-32-32v-486.4c0-19.2 12.8-32 32-32z m204.8 0h32c19.2 0 32 12.8 32 32v384c0 19.2-12.8 32-32 32H640c-19.2 0-32-12.8-32-32v-384c0-19.2 12.8-32 32-32z m204.8 0h32c19.2 0 32 12.8 32 32V710.4c0 19.2-12.8 32-32 32h-32c-19.2 0-32-12.8-32-32v-608c0-19.2 12.8-32 32-32z"  horiz-adv-x="1024" />

    
    <glyph glyph-name="iconjia" unicode="&#58630;" d="M929.0101333333333 321.0378666666667h-354.4458666666667v-354.5024c0-34.54613333333333-28.018133333333328-62.536533333333324-62.56533333333334-62.536533333333324-34.54613333333333 0-62.56426666666667 27.990399999999998-62.56426666666667 62.536533333333324v354.5024h-354.44800000000004c-34.574933333333334 0-62.56426666666667 27.990399999999998-62.56426666666667 62.536533333333324 0 34.53333333333333 27.99253333333333 62.536533333333324 62.56426666666667 62.536533333333324h354.4458666666667v354.5024c0 34.53333333333333 28.018133333333328 62.536533333333324 62.56426666666667 62.536533333333324 34.5472 0 62.56533333333334-28.004266666666666 62.56533333333334-62.536533333333324v-354.50346666666667h354.4458666666667c34.574933333333334 0 62.56533333333334-28.00213333333333 62.56533333333334-62.534400000000005-0.0010666666666666667-34.54613333333333-27.990399999999998-62.534400000000005-62.56533333333334-62.534400000000005z"  horiz-adv-x="1024" />

    
    <glyph glyph-name="xialajiantouxiangxia" unicode="&#58626;" d="M1024 110.5049600000001l-511.80032000000017 486.21055999999976L0.3993600000001152 110.50495999999976z"  horiz-adv-x="1024" />

    
    <glyph glyph-name="shang" unicode="&#58634;" d="M211.03915405273438 241.24310302734364l263.671875-263.671875c20.5927734375-20.59359741210937 53.98352050781251-20.59442138671875 74.5762939453125 0l263.671875 263.671875c20.5927734375 20.59359741210937 20.5927734375 53.98352050781251 0 74.57794189453125-20.5927734375 20.5960693359375-53.98352050781251 20.5960693359375-74.5762939453125 0l-173.64935302734375-173.65264892578125v610.971405029297c0 29.12255859375-23.608520507812504 52.734375-52.734375 52.734375-29.12338256835937 0-52.734375-23.611816406249996-52.734375-52.734375v-610.971405029297l-173.64935302734375 173.64935302734375c-10.29638671875 10.297210693359375-23.7930908203125 15.4478759765625-37.28814697265625 15.4478759765625-13.494232177734375 0-26.990936279296875-5.148193359375-37.287322998046875-15.444580078124998-20.59442138671875-20.59771728515625-20.59442138671875-53.98352050781251 0-74.57794189453125z"  horiz-adv-x="1024" />

    
    <glyph glyph-name="xiangxiajiantou" unicode="&#58628;" d="M354.562295 832.775027l0-470.682989L185.649234 362.092038l326.34872-426.866041 326.352813 426.866041-168.917154 0L669.433612 832.775027 354.562295 832.775027z"  horiz-adv-x="1024" />

    
    <glyph glyph-name="wenti1" unicode="&#58840;" d="M106.666667 383.87199999999996a405.333333 405.333333 0 1 0 810.666666 0 405.333333 405.333333 0 0 0-810.666666 0z m419.072 210.56c-46.378667 0-82.730667-11.904-109.056-36.266667-26.325333-23.893333-39.466667-56.234667-39.466667-97.664h65.792c0 25.002667 5.632 44.288 16.938667 57.898667 12.501333 16.469333 33.194667 24.405333 61.397333 24.405333 22.570667 0 40.746667-5.674667 53.248-17.024 11.946667-11.349333 18.176-26.666667 18.176-46.506666 0-14.762667-6.272-28.416-17.536-41.472l-10.666667-10.752c-38.826667-31.232-62.634667-54.485333-70.826666-70.4-8.746667-14.72-12.501333-32.853333-12.501334-53.888v-9.642667h67.029334v9.642667c0 13.653333 3.157333 26.112 10.026666 37.461333 5.674667 10.24 14.421333 20.437333 26.325334 29.482667 29.44 23.296 47.018667 38.058667 52.650666 44.288 15.658667 18.133333 23.808 41.386667 23.808 69.205333 0 34.048-12.544 61.312-37.589333 81.152-25.088 20.48-57.642667 30.08-97.749333 30.08z m-11.306667-331.946667c-12.501333 0-23.808-3.413333-32.554667-11.349333a36.010667 36.010667 0 0 1-13.184-28.970667c0-11.349333 4.394667-20.992 13.184-28.928 8.746667-7.936 20.053333-11.946667 32.554667-11.946666 12.544 0 23.808 4.010667 32.597333 11.392a38.528 38.528 0 0 1 13.781334 29.482666 36.010667 36.010667 0 0 1-13.141334 28.970667c-8.789333 7.936-20.053333 11.349333-33.237333 11.349333z"  horiz-adv-x="1024" />

    
    <glyph glyph-name="xiangshang1" unicode="&#58916;" d="M472.64 393.92l-0.064-0.064-271.232-271.232a32.448 32.448 0 0 1-0.128-45.44c12.16-12.096 32.832-12.416 45.44 0.192L495.36 326.144l248.768-248.768a32.448 32.448 0 0 1 45.44-0.128 32.448 32.448 0 0 1-0.192 45.44L518.144 393.792a31.424 31.424 0 0 1-22.592 9.344 31.744 31.744 0 0 1-22.912-9.28z m0 300.8l-0.064-0.064-271.232-271.232a32.448 32.448 0 0 1-0.128-45.44c12.16-12.096 32.832-12.416 45.44 0.192L495.36 626.944l248.768-248.768a32.448 32.448 0 0 1 45.44-0.128 32.448 32.448 0 0 1-0.192 45.44L518.144 694.592a31.36 31.36 0 0 1-0.128 0.128A31.872 31.872 0 0 1 495.552 704a31.744 31.744 0 0 1-22.912-9.28z"  horiz-adv-x="1024" />

    
    <glyph glyph-name="xitongshezhi" unicode="&#58938;" d="M978.492641-111.299255c-11.533017 0-22.815186 4.67809-30.089803 12.450786-9.94471 10.614042-41.281521 38.107318-66.936846 38.107318-25.486485 0-57.328611-27.663322-66.519568-37.353565-7.188991-7.688276-18.471159-12.285564-29.83413-12.285564-5.516263 0-10.614042 1.003395-15.296956 3.010186l-0.833349 0.334063-78.056204 42.534559-0.748929 0.500492c-14.207934 9.695067-19.639777 28.581091-12.535206 44.126485 0.079596 0.080802 7.184166 16.125481 7.184166 30.838731 0 44.45693-37.103922 80.641877-82.734294 80.641876h-3.259829c-13.034492 0-23.734161 11.282168-27.158007 28.830735-0.249643 1.423085-6.60046 34.597846-6.60046 60.757281 0 26.155817 6.435238 59.334196 6.60046 60.752457 3.423846 17.717406 14.373157 29.085201 27.662117 28.751138h2.755719c45.630372 0 82.734294 36.184947 82.734294 80.641877 0 14.70722-7.10457 30.753105-7.184166 30.837525-7.02015 15.376552-1.588307 34.348203 12.700429 44.04327l0.833349 0.583706 82.405055 44.122866 0.833348 0.335269c4.67809 1.921165 9.774663 2.84014 15.12691 2.84014 11.447391 0 22.645139-4.512867 29.914932-11.946677 9.779487-9.94471 40.617012-35.855708 65.519791-35.855708 24.65193 0 55.325439 25.321262 65.015682 35.101956 7.273411 7.353007 18.386739 11.781454 29.668907 11.781454 5.517469 0 10.699668-1.003395 15.376552-3.005362l0.834555-0.334063 79.558885-43.039875 0.838173-0.583706c14.288737-9.695067 19.634953-28.581091 12.616009-44.127691-0.080802-0.08442-7.184166-16.125481-7.184166-30.837525 0-44.458136 37.102716-80.641877 82.733088-80.641876h2.756925c13.288959 0.334063 24.152644-11.033732 27.662116-28.746314 0.249643-1.423085 6.60046-34.60267 6.600461-60.757281 0-26.155817-6.435238-59.334196-6.600461-60.757282-3.425052-17.713788-14.373157-29.080377-27.662116-28.746314h-2.756925c-45.630372 0-82.733088-36.184947-82.733088-80.641876 0-14.71325 7.103364-30.673509 7.184166-30.838731 7.018944-15.376552 1.587101-34.346997-12.616009-44.042065l-0.838173-0.584912-80.892725-43.537954-0.838173-0.334063c-4.76251-1.922371-9.86029-2.925766-15.206506-2.925766z m-9.695067 56.993342c0.334063-0.249643 1.337459-0.584912 2.256434-0.584912h0.079596l69.698595 37.523612c-1.752324 3.759115-9.361004 22.311076-9.361004 41.531164 0 57.666293 46.633767 104.964568 105.050194 107.890333 0.833349 4.512867 5.431843 29.999352 5.431843 49.139844 0 19.135667-4.598494 44.542556-5.431843 49.135019-58.500847 2.925766-105.050194 50.228865-105.050194 107.890334 0 19.390134 7.688276 37.772049 9.361004 41.537194l-68.525153 37.102716h-0.335269c-1.167412 0-2.256434-0.418483-2.590497-0.668126-1.168618-1.168618-11.032526-10.949311-25.321262-20.723975-21.142458-14.543204-41.201924-21.81179-59.419823-21.81179-18.466335 0-38.605398 7.433809-59.833482 22.311076-14.373157 10.02913-24.317867 19.97384-25.491309 21.142458-0.334063 0.249643-1.502681 0.669332-2.590497 0.669332h-0.249642l-71.032437-38.021691c1.75353-3.844741 9.35618-22.3159 9.35618-41.537194 0-57.661469-46.543317-104.964568-105.044164-107.890334-0.834555-4.508043-5.431843-29.999352-5.431842-49.135019 0-19.140491 4.597288-44.542556 5.431842-49.139844 58.500847-2.925766 105.044164-50.224041 105.044164-107.890333 0-19.38531-7.688276-37.857675-9.4406-41.61679l67.272115-36.684233h0.170047c0.998571 0 1.922371 0.335269 2.172013 0.584912 1.253038 1.337459 11.282168 11.616232 25.740952 21.975807 21.557323 15.376552 42.030449 23.234875 60.921298 23.234875 19.051247 0 39.694419-7.942743 61.337369-23.653359 14.541998-10.359575 24.65193-20.973617 25.825372-22.311076z m-87.081939 128.613103c-60.752457 0-110.143149 48.136448-110.143149 107.386223 0 59.17018 49.475113 107.386224 110.227569 107.386224 60.757281 0 110.146767-48.052028 110.146768-107.386224-0.08442-59.16415-49.389486-107.386224-110.231188-107.386223z m0 172.737174c-37.019502 0-67.103275-29.331226-67.103275-65.350951s30.083773-65.349745 67.103275-65.349744c37.02312 0 67.106893 29.33002 67.106893 65.349744s-30.083773 65.350951-67.106893 65.350951z m-351.409096-278.201028H264.805941c-5.516263 0-9.94471 4.512867-9.94471 9.94471V5.197124c0 5.512645 4.512867 9.945916 9.94471 9.945916h265.500598M499.303792 144.589491H166.945943c-40.114109 0-77.801737 16.295528-106.298408 45.880014-28.247028 29.331226-43.708001 68.19109-43.708001 109.393015v421.522557c0 41.201924 15.460973 80.062995 43.708001 109.393015 28.412251 29.584487 66.1843 45.880014 106.298408 45.880014h637.88693c40.112903 0 77.800531-16.295528 106.302026-45.880014 28.247028-29.33002 43.703177-68.19109 43.703177-109.393015V522.488467h-44.291707V721.386283c0 61.256567-47.468322 111.065743-105.713496 111.065742H166.945943c-58.330801 0-105.713496-49.893596-105.713496-111.150162v-421.522557c0-61.256567 47.382695-111.145339 105.713496-111.145339h332.357849v-44.044476z m0 0"  horiz-adv-x="1223" />

    
    <glyph glyph-name="tongji" unicode="&#59251;" d="M513.986596 222.002116v-237.307936c0-4.334392 1.805996-8.668783 4.695591-11.558378 3.250794-2.889594 7.223986-4.695591 11.558377-4.69559H650.15873c4.334392 0 8.668783 1.805996 11.558378 4.69559 2.889594 2.889594 4.695591 7.223986 4.69559 11.558378v316.410582l-122.085361-105.108995-30.340741 26.006349zM1.083598-15.667019c0-4.334392 1.805996-8.668783 4.695591-11.558378 3.250794-3.250794 7.223986-4.695591 11.558377-4.695591H137.255732c4.334392 0 8.668783 1.805996 11.558377 4.695591 2.889594 3.250794 4.695591 7.223986 4.695591 11.558378v242.003527L1.083598 100.639153v-116.306172z m256.451499 327.968959v-327.968959c0-4.334392 1.805996-8.668783 4.695591-11.558378 3.250794-3.250794 7.223986-4.695591 11.558377-4.695591H393.707231c4.334392 0 8.668783 1.805996 11.558377 4.695591 2.889594 3.250794 4.695591 7.223986 4.695591 11.558378v325.801763l-76.213051 65.015873-76.213051-62.848677z m513.264198-327.968959c0-4.334392 1.805996-8.668783 4.69559-11.558378 2.889594-3.250794 7.223986-4.695591 11.558378-4.695591h120.279365c4.334392 0 8.668783 1.805996 11.558377 4.695591 2.889594 3.250794 4.695591 7.223986 4.695591 11.558378V521.797531L770.799295 390.320988v-405.988007z m-26.367549 815.588007c-2.167196 0-4.334392-1.444797-5.05679-3.250794-0.722399-2.167196-0.361199-4.334392 1.083598-6.140388l114.861375-113.055379-310.631393-267.287478-210.940388 179.877249L0 314.469136v-118.834568l333.748148 275.595062 210.940388-179.51605 375.286067 322.91217 94.995415-93.189418c1.444797-1.444797 3.973192-1.805996 5.779188-1.083598 2.167196 0.722399 3.250794 2.889594 3.250794 5.05679V794.502998c0 1.444797-0.722399 2.889594-1.444797 3.973192-1.083598 1.083598-2.528395 1.444797-3.973192 1.444798h-274.150265z m0 0"  horiz-adv-x="1024" />

    
    <glyph glyph-name="xiangxiajiantou1" unicode="&#58629;" d="M669.437705-64.77502700000002l0 470.682989L838.350766 405.907962l-326.34872 426.866041-326.352813-426.866041 168.917154 0L354.566388-64.77502700000002 669.437705-64.77502700000002z"  horiz-adv-x="1024" />

    
    <glyph glyph-name="xiangshang2" unicode="&#58631;" d="M476.811636 359.05163600000003l-415.185454 414.254546 59.485091 59.20581799 415.092363-414.25454499 416.861091 416.116363 59.578182-59.578182L595.595636 358.865455l0.186182-0.186182-59.392-59.205818-0.093091 0.09309-0.186182-0.09309-59.578181 59.392 0.186181 0.18618101z m0-365.754181l-415.185454 414.254545 59.485091 59.298909L536.203636 52.596363999999994 953.06472699 468.526545l59.57818201-59.392-416.954182-416.023272 0.186182-0.186182-59.392-59.205818-0.093091 0.18618201-0.186182-0.186182-59.578181 59.39199999 0.186181 0.186182z"  horiz-adv-x="1024" />

    
    <glyph glyph-name="72-copy" unicode="&#58901;" d="M235.008 784.384c-51.2 0-92.16-41.472-92.16-92.16s41.472-92.16 92.16-92.16c51.2 0 92.16 41.472 92.16 92.16 0 51.2-41.472 92.16-92.16 92.16z m203.776-401.408l83.456 29.184 6.656 2.048 6.144-3.584 62.976-39.424L650.24 520.192l8.192 22.528 16.384-17.408 47.616-50.688 69.632 119.808 25.088-14.848-79.36-136.704-9.728-16.896-13.312 14.336-44.544 47.616-50.176-143.872-6.144-17.408-15.36 9.728-72.704 45.568-76.8-26.624-10.24 27.648z m15.36-363.52h282.112v-49.664H454.144v49.664z m177.664 160.768h303.104v578.56H374.784v-58.88h501.76v-461.312H398.848v-58.88h152.576v-145.408h80.384v145.92zM77.312 336.384l58.368-44.032-18.944-323.072h84.48l14.336 275.456h35.84l17.408-275.456H348.16l-12.288 323.072-6.656 197.12 193.024 3.072 41.472 73.216-217.088 10.24H248.832l7.168-12.288-9.728-19.456 20.992-148.48-32.256-33.28v-2.56l-1.024 1.536-1.536-1.536v2.56L199.68 396.288l20.992 148.48-9.728 19.456 7.168 12.288H121.856l-44.544-240.128z"  horiz-adv-x="1024" />

    
    <glyph glyph-name="fenxi2" unicode="&#58889;" d="M807.6 121.9H241.1V675.4c0 15.9-11 28.8-24.5 28.8-13.6 0-24.5-12.9-24.5-28.8V93c0-15.9 11-28.8 24.5-28.8h591c13.6 0 24.5 12.9 24.5 28.8 0.1 16-10.9 28.9-24.5 28.9z m0 0M285.7 229.6c3.8 0 7.6 1.7 10.5 5L493.5 463l74.6-87.4c5.6-6.6 15.5-6.6 21.1 0L719.7 529l6.9-8.1 39.8-46.4L795 638.9l-143.1-30.6 40.9-47.8 5.8-6.8-120-141-74.5 87.3c-5.8 6.8-15.2 6.8-21 0.1L275.2 259.5c-5.8-6.8-5.9-17.8-0.1-24.7 2.9-3.4 6.8-5.2 10.6-5.2z m0 0"  horiz-adv-x="1024" />

    
    <glyph glyph-name="xialajiantouxiangxia1" unicode="&#58654;" d="M0 572.16170668l511.80032-486.21056L1023.60064 572.16170668z"  horiz-adv-x="1024" />

    
    <glyph glyph-name="daochu" unicode="&#59243;" d="M500.288 890.56c6.4 7.232 16.64 7.232 23.04 0l242.496-269.184a7.68 7.68 0 0 0 1.408-7.296c-0.832-2.56-2.88-4.224-5.248-4.288h-156.8l0.256-290.88a22.4 22.4 0 0 0-4.864-14.336 15.552 15.552 0 0 0-12.032-5.888h-153.6a15.616 15.616 0 0 0-11.84 5.952 22.4 22.4 0 0 0-4.992 14.272l0.32 290.816h-156.8c-2.24 0-4.224 1.728-5.056 4.224a7.68 7.68 0 0 0 1.28 7.424L500.352 890.56zM1012.48 257.28c8.768-11.072 13.056-33.92 9.6-50.944l-60.224-303.424c-3.392-17.088-15.168-30.912-26.24-30.912H89.28c-11.072 0-22.912 13.888-26.304 30.912l-61.44 303.424c-3.328 17.088 0.96 39.936 9.6 50.944l153.664 192c8.704 11.072 24.832 20.032 35.84 20.032H291.2l-146.88-238.72h147.584l71.872-172.8h295.616l75.136 172.8h147.52l-148.032 238.72h88.896c11.072 0 27.2-8.96 35.904-20.032l153.6-192z"  horiz-adv-x="1024" />

    
    <glyph glyph-name="tianjiashipinhechupintujiahao" unicode="&#58891;" d="M430.592 460.288H129.024c-41.472 0-75.776-33.792-75.776-75.264 0-41.984 33.792-75.264 75.776-75.264h301.568v-301.568c0-41.984 33.792-75.776 75.264-75.776 41.984 0 75.264 33.792 75.264 75.776v301.568h301.568c41.472 0 75.776 33.792 75.776 75.264 0 41.984-33.792 75.264-75.776 75.264h-301.568V761.856c0 41.472-33.792 75.776-75.264 75.776-41.984 0-75.264-33.792-75.264-75.776v-301.568z"  horiz-adv-x="1024" />

    
    <glyph glyph-name="guanli" unicode="&#58942;" d="M918.24128 335.68768l-63.0016 44.67712-0.05632 7.32672 63.0528 44.62592c35.24608 24.89344 45.64992 73.40032 23.6544 110.42304l-74.63936 125.25056c-20.6336 34.54464-68.87936 50.17088-106.37824 34.22208l-72.42752-30.6688a144.49664 144.49664 0 0 0-10.0864 9.6512l-7.76704 69.84192c-4.736 41.71264-41.6 74.368-83.95776 74.368H437.35552c-42.30144 0-79.22176-32.65536-83.95776-74.47552l-8.19712-73.83552c-4.68992-1.39776-10.40384-2.80064-15.19616-3.50208L263.17824 702.1568c-37.4528 16.10752-85.74464 0.42496-106.49088-34.2272l-74.48064-125.1328c-22.0928-36.97152-11.74528-85.47328 23.552-110.47936l63.0528-44.62592v-7.32672l-63.09888-44.67712c-35.2-24.90368-45.60384-73.40544-23.61344-110.43328l74.64448-125.24544c20.63872-34.53952 69.03808-50.11968 106.37824-34.22208l72.54528 30.66368a220.6464 220.6464 0 0 0 10.01984-9.58976l7.71072-69.84704c4.6848-41.71264 41.6-74.42944 83.95776-74.42944h149.28384c42.40896 0 79.26784 32.7168 83.95776 74.48576l8.29952 73.88672a124.96384 124.96384 0 0 0 15.35488 3.39456l66.62144-28.50816c37.66272-16.27136 85.46816-0.74752 106.43456 34.22208l74.63936 125.25568c21.88288 37.01248 11.54048 85.46304-23.7056 110.36672z m-36.864-74.37312l-74.53696-125.19424c-2.42176-3.98336-7.38304-6.6816-18.26304-5.60128l-74.8032 32.01024c-22.20032 9.48736-61.16352-4.84864-73.99424-11.20768-15.13472-7.54688-28.12928-27.97056-30.34624-47.64672l-8.832-78.78656c-0.70656-6.35904-7.1168-11.8528-13.96224-11.8528H437.35552c-6.7328 0-13.312 5.54496-14.01344 11.74528l-8.7296 78.89408a35.4304 35.4304 0 0 1-1.50528 7.1168c-7.17312 21.66272-41.01632 46.99648-46.18752 50.28352-7.33184 4.46976-17.5104 7.00928-28.71808 7.00928-6.95808 0-17.46432-0.9728-27.91936-5.44768l-79.60576-32.97792c-5.49888 0-11.264 2.80064-13.4144 6.46656l-74.64448 125.13792c-3.06688 5.17632-1.23904 13.36832 3.82976 16.9216l66.06848 46.83776c13.91104 9.86112 27.5456 29.63968 26.78272 47.15008l-0.16384 20.58752c0.80896 17.88928-10.07104 38.528-26.61888 50.2272l-66.06848 46.83264c-5.01248 3.5584-6.89664 11.7504-3.76832 16.86528l74.47552 125.13792c2.25792 3.71712 8.07936 6.5792 18.26304 5.60128l74.74688-32.00512c23.33696-10.02496 63.4368 6.03648 74.112 11.264 15.08352 7.54688 28.07808 27.97056 30.336 47.58528l8.7296 78.79168c0.70656 6.46656 7.17312 11.85792 14.01344 11.85792h149.28384c6.84544 0 13.25568-5.39136 13.96224-11.7504l8.832-78.8992c0.22016-2.42688 0.70656-4.79744 1.51552-7.11168 7.12192-21.5552 40.96512-46.83264 45.32736-49.58208 13.79328-9.10848 39.60832-9.80992 57.4464-2.1504l79.60576 32.92672c5.49376 0 11.25888-2.80576 13.47584-6.41024l74.57792-125.19424c3.072-5.17632 1.18272-13.36832-3.82976-16.92672l-66.11968-46.83264c-14.06464-10.02496-27.75552-30.06976-26.61888-46.99648l0.05632-20.58752c-0.92672-17.9456 10.02496-38.69696 26.56256-50.38592l66.11968-46.83776c5.00736-3.54816 6.89152-11.74528 3.82464-16.86528zM512 581.81632c-112.256 0-203.60192-88.70912-203.60192-197.7856 0-109.07136 91.34592-197.8368 203.60192-197.8368 112.26112 0 203.60192 88.76544 203.60192 197.8368 0 109.07648-91.3408 197.7856-203.60192 197.7856z m0-325.19168c-73.45152 0-133.2224 57.12384-133.2224 127.40096 0 70.2208 59.77088 127.34976 133.2224 127.34976s133.1712-57.12384 133.1712-127.34976c0-70.27712-59.71968-127.40096-133.1712-127.40096z"  horiz-adv-x="1024" />

    
    <glyph glyph-name="mulu1" unicode="&#58898;" d="M747.5 151.6H275.7v83h471.8v-83z m0 183.7H275.7v95h471.8v-95z m0 189.8H275.7V614h471.8v-88.9z m179 181.5c0.6 49.8-39.1 90.6-88.9 91.3H185.5c-49.9-0.6-89.8-41.4-89.3-91.2V59c-0.6-49.9 39.3-90.7 89.2-91.3h652.2c49.8 0.7 89.5 41.6 88.9 91.3V706.6z"  horiz-adv-x="1024" />

    
    <glyph glyph-name="liebiao" unicode="&#58625;" d="M96.256 259.96799999999996l192 0c17.664 0 32 14.336 32 32s-14.336 32-32 32l-192 0c-17.664 0-32-14.336-32-32S78.592 259.96799999999996 96.256 259.96799999999996zM1015.04-7.423999999999978l-110.208 110.208c34.112 43.52 55.36 97.6 55.36 157.248 0 141.376-114.624 256-256 256s-256-114.624-256-256 114.624-256 256-256c59.648 0 113.728 21.248 157.248 55.36l110.208-110.208c12.032-11.968 31.36-11.968 43.392 0C1027.008-38.78399999999999 1027.008-19.456000000000017 1015.04-7.423999999999978zM841.408 125.952c-0.576-0.512-1.344-0.704-1.856-1.28s-0.768-1.344-1.28-1.856c-34.624-33.792-81.792-54.784-134.08-54.784-106.048 0-192 85.952-192 192s85.952 192 192 192 192-85.952 192-192C896.256 207.74400000000003 875.264 160.57600000000002 841.408 125.952zM96.256 643.968l576 0c17.664 0 32 14.336 32 32s-14.336 32-32 32l-576 0c-17.664 0-32-14.336-32-32S78.592 643.968 96.256 643.968zM352.256 515.9680000000001l-256 0c-17.664 0-32-14.336-32-32s14.336-32 32-32l256 0c17.664 0 32 14.336 32 32S369.92 515.9680000000001 352.256 515.9680000000001zM352.256 131.96799999999996l-256 0c-17.664 0-32-14.336-32-32s14.336-32 32-32l256 0c17.664 0 32 14.336 32 32S369.92 131.96799999999996 352.256 131.96799999999996z"  horiz-adv-x="1025" />

    
    <glyph glyph-name="daoruwenjian" unicode="&#58965;" d="M1072.790588 2.048H108.363294a10.842353 10.842353 0 0 0-10.842353 10.842353V787.696941a10.842353 10.842353 0 0 0 10.842353 10.842353h213.714824a10.842353 10.842353 0 0 0 7.649882-3.132235l114.085647-114.085647c20.48-20.48 47.706353-31.804235 76.619294-31.804236h541.515294c5.963294 0 10.842353-4.818824 10.842353-10.782117V2.108235z m-10.842353 744.929882H520.432941a10.842353 10.842353 0 0 0-7.649882 3.252706L398.697412 864.376471A109.206588 109.206588 0 0 1 322.078118 896H108.363294C48.609882 896 0 847.390118 0 787.636706V12.950588c0-59.813647 48.609882-108.423529 108.363294-108.423529h1061.948235V638.674824a108.423529 108.423529 0 0 1-108.423529 108.303058z m-345.931294-594.883764c-32.406588 29.274353-75.776 63.006118-109.628235 93.665882l192.993882 200.583529c18.371765 91.316706-8.011294 107.580235-83.486117 105.231059-75.414588-2.409412-7.770353 1.566118-11.685647 2.409412l-194.56-207.811765-2.529883 2.409412-92.16 97.761882V146.672941h297.140706l3.915294 5.421177z"  horiz-adv-x="1204" />

    
    <glyph glyph-name="mulu2" unicode="&#58882;" d="M1022 40.3c3.6-21.7-1-41.2-13.6-58.5s-29.8-27.8-51.5-31.4l-130-20.6c-20.9-3.6-40.3 0.9-58 13.5-17.6 12.7-28.3 29.8-31.9 51.5l-110.5 700c-1.5 10.8-1 21.1 1.6 30.9 2.6 9.7 6.7 18.8 12.5 27.1s13.2 15.2 22.2 20.6c9 5.4 18.9 9.2 29.8 11.4l129 20.5c21.6 3.6 41.2-1.1 58.5-14.1 17.4-13 27.8-30.4 31.5-52L1022 40.3zM532 809.6c21.7 0 40.1-7.6 55.3-22.8 15.2-15.1 22.7-33.6 22.7-55.3v-723.8c0-21.7-7.6-40.1-22.7-55.3-15.2-15.2-33.6-22.8-55.3-22.8H419.3c-21.6 0-40.1 7.6-55.2 22.8-15.2 15.1-22.7 33.6-22.7 55.3V731.5c0 21.7 5.8 40.1 17.3 55.3 11.6 15.2 28.5 22.8 51 22.8H532z m0-546.1c7.2 0 13.4 3.4 18.4 10.3 5 6.9 7.6 15 7.6 24.4 0 10.1-2.6 18.4-7.6 24.9-5.1 6.5-11.2 9.7-18.4 9.7H419.3c-7.2 0-13.3-3.3-18.4-9.7-5.1-6.5-7.6-14.8-7.6-24.9 0-9.4 2.5-17.5 7.6-24.4 5.1-6.9 11.2-10.3 18.4-10.3H532z m0 137.6c7.2 0 13.4 3.4 18.4 10.3 5 6.9 7.6 15.4 7.6 25.5s-2.6 18.4-7.6 24.9c-5.1 6.5-11.2 9.7-18.4 9.7H419.3c-7.2 0-13.3-3.3-18.4-9.7-5.1-6.5-7.6-14.8-7.6-24.9 0-10.1 2.5-18.6 7.6-25.5s11.2-10.3 18.4-10.3H532zM191.8 809.6c21.7 0 40.3-7.6 55.8-22.8 15.5-15.1 23.3-33.6 23.3-55.3v-723.8c0-21.7-7.7-40.1-23.3-55.3-15.5-15.2-34.1-22.8-55.8-22.8H79c-21.7 0-40.2 7.6-55.8 22.8C7.7-32.3 0-13.9 0 7.8V731.6c0 21.7 7.7 40.1 23.3 55.3C38.8 802 57.4 809.6 79 809.6h112.8zM83.4 538.7c-8 0-14.4-3.3-19.5-9.8-5.1-6.5-7.6-14.8-7.6-24.9 0-9.4 2.6-17.5 7.6-24.4 5.1-6.9 11.5-10.3 19.5-10.3h104c8 0 14.3 3.5 19 10.3 4.6 6.9 7 15 7 24.4 0 10.1-2.4 18.4-7 24.9-4.7 6.5-11.1 9.8-19 9.8h-104z m108.4-340.2c8 0 14.3 3.3 19 9.7 4.7 6.5 7 14.5 7 23.8 0 10.1-2.3 18.2-7 24.4-4.7 6.2-11 9.2-19 9.2H83.4c-8 0-14.4-3.1-19.5-9.2-5.1-6.2-7.6-14.3-7.6-24.4 0-9.4 2.6-17.3 7.6-23.8 5.1-6.5 11.5-9.7 19.5-9.7h108.4z m0 133.3c8 0 14.3 3.3 19 9.8 4.7 6.5 7 14.8 7 24.9 0 10.1-2.3 18.4-7 24.9s-11 9.8-19 9.8H83.4c-8 0-14.4-3.3-19.5-9.8-5.1-6.5-7.6-14.8-7.6-24.9 0-10.1 2.6-18.4 7.6-24.9 5.1-6.5 11.5-9.8 19.5-9.8h108.4z"  horiz-adv-x="1024" />

    
    <glyph glyph-name="shang-copy" unicode="&#58885;" d="M794.15079307 517.83459091l-247.19238281 247.19238281c-19.3057251 19.30649757-50.60955048 19.30727005-69.91527557 0l-247.19238281-247.19238281c-19.3057251-19.30649757-19.3057251-50.60955048 0-69.91682052 19.3057251-19.308815 50.60955048-19.308815 69.91527557 0l162.79626846 162.79935836 0-572.78569221c0-27.30239868 22.13298798-49.43847656 49.43847657-49.43847656 27.30317117 0 49.43847656 22.13607788 49.43847656 49.43847656l0 572.78569221 162.79626846-162.79626846c9.65286255-9.65363503 22.30602264-14.48238373 34.95763779-14.48238373 12.65084267 0 25.30400276 4.82643127 34.95686531 14.47929383 19.30727005 19.31035995 19.30727005 50.60955048 0 69.91682052z"  horiz-adv-x="1024" />

    
    <glyph glyph-name="wenti2" unicode="&#58924;" d="M460.8 230.4h102.4V128H460.8V230.4z m0 409.6h102.4v-307.2H460.8V640z m51.2-768c281.6 0 512 230.4 512 512S793.6 896 512 896 0 665.6 0 384s230.4-512 512-512z"  horiz-adv-x="1024" />

    
    <glyph glyph-name="xiazai2" unicode="&#59218;" d="M700.496842 534.851368V869.052632a26.947368 26.947368 0 0 1-26.947368 26.947368H348.213895a26.947368 26.947368 0 0 1-26.947369-26.947368v-334.201264h-185.397894a26.947368 26.947368 0 0 1-18.593685-46.457263L492.328421 131.260632a26.947368 26.947368 0 0 1 37.187368 0l374.999579 357.133473a26.947368 26.947368 0 0 1-18.593684 46.457263h-185.397895zM95.393684-127.191579h830.868211a26.947368 26.947368 0 0 1 26.947368 26.947368v66.452211a26.947368 26.947368 0 0 1-26.947368 26.947368H95.393684a26.947368 26.947368 0 0 1-26.947368-26.947368v-66.452211a26.947368 26.947368 0 0 1 26.947368-26.947368z"  horiz-adv-x="1024" />

    
    <glyph glyph-name="fenlei" unicode="&#58912;" d="M387.584 322.048H152.371c-16.896 0-31.13-5.837-42.803-17.613-11.674-11.673-17.51-25.907-17.51-42.803v-236.749c0-16.896 5.836-31.232 17.51-42.803 11.674-11.674 25.805-17.51 42.803-17.51h235.315c16.896 0 31.335 5.836 43.418 17.51 11.878 11.674 17.818 25.907 17.818 42.803V261.632c0 16.896-5.94 31.13-17.818 42.803-12.186 11.674-26.624 17.613-43.52 17.613z m0 432.128H152.371c-16.896 0-31.13-5.94-42.803-17.613-11.674-11.571-17.51-25.907-17.51-42.803v-235.827c0-16.896 5.836-31.437 17.51-43.418 11.674-12.083 25.805-18.022 42.803-18.022h235.315c16.896 0 31.335 5.939 43.418 18.022 11.878 11.981 17.818 26.42 17.818 43.418V693.76c0 16.998-5.94 31.232-17.818 42.906-12.186 11.673-26.624 17.51-43.52 17.51z m432.128-432.128H584.397c-16.794 0-31.335-5.837-43.315-17.613-11.981-11.776-18.023-25.907-18.023-42.905v-236.75c0-16.895 6.042-31.231 18.023-42.905 12.083-11.673 26.419-17.51 43.315-17.51h235.315c16.794 0 31.13 5.837 42.803 17.51 11.571 11.674 17.408 25.907 17.408 42.906V261.632c0 16.896-5.734 31.232-17.408 42.906-11.571 11.57-25.907 17.51-42.803 17.51z m93.184 297.062l-166.298 166.4c-11.98 11.981-26.214 17.818-42.7 17.818s-30.72-5.94-42.701-17.92l-166.81-166.707c-11.98-11.981-18.125-26.42-18.227-43.008-0.307-16.794 5.53-31.027 17.51-43.008l166.298-166.298c11.98-11.98 26.317-17.92 43.418-17.92 16.896 0 31.334 6.144 43.212 18.023l166.81 166.604c11.98 11.981 17.92 26.317 17.715 43.008-0.307 16.692-6.246 31.13-18.227 43.008z m0 0"  horiz-adv-x="1024" />

    
    <glyph glyph-name="guolv" unicode="&#59391;" d="M928 128H704c-19.2 0-32-12.8-32-32s12.8-32 32-32h224c19.2 0 32 12.8 32 32 0 12.8-12.8 32-32 32z m0 179.2H704c-19.2 0-32-12.8-32-32s12.8-32 32-32h224c19.2 0 32 12.8 32 32 0 12.8-12.8 32-32 32z m0 172.8H704c-19.2 0-32-12.8-32-32s12.8-32 32-32h224c19.2 0 32 12.8 32 32s-12.8 32-32 32zM563.2-32c-19.2 0-32 12.8-32 32V499.2c0 6.4 0 19.2 6.4 25.6L755.2 768H172.8l217.6-243.2c6.4-6.4 6.4-12.8 6.4-25.6v-300.8l51.2-44.8c12.8-12.8 19.2-32 6.4-44.8-12.8-12.8-32-19.2-44.8-6.4l-64 51.2c-6.4 6.4-12.8 12.8-12.8 25.6V486.4l-256 294.4C64 793.6 64 806.4 64 819.2 70.4 832 83.2 838.4 96 838.4h736c12.8 0 25.6-6.4 32-19.2 6.4-12.8 0-25.6-6.4-38.4l-256-294.4V0c0-19.2-19.2-32-38.4-32z"  horiz-adv-x="1024" />

    
    <glyph glyph-name="mulu3" unicode="&#58904;" d="M548.571429 237.714286v146.285714H402.285714v-292.571429l146.285715-0.036571V164.571429h292.571428v-292.571429h-292.571428v146.285714H329.142857V603.428571H182.857143V896h292.571428v-292.571429H402.285714v-146.285714h146.285715v73.142857h292.571428v-292.571428h-292.571428z"  horiz-adv-x="1024" />

    
    <glyph glyph-name="mulu4" unicode="&#59090;" d="M85.333333 708.266667c0-21.333333 12.8-42.666667 29.866667-51.2 17.066667-12.8 42.666667-12.8 59.733333 0 17.066667 12.8 29.866667 29.866667 29.866667 51.2s-12.8 42.666667-29.866667 51.2c-17.066667 12.8-42.666667 12.8-59.733333 0-17.066667-8.533333-29.866667-29.866667-29.866667-51.2z m0 0M938.666667 704c0-29.866667-25.6-55.466667-55.466667-55.466667H384c-29.866667 0-55.466667 25.6-55.466667 55.466667v8.533333C328.533333 742.4 354.133333 768 384 768h499.2c29.866667 0 55.466667-25.6 55.466667-55.466667v-8.533333z m0 0M85.333333 384c0-21.333333 12.8-42.666667 29.866667-51.2 17.066667-12.8 42.666667-12.8 59.733333 0 21.333333 8.533333 34.133333 29.866667 34.133334 51.2s-12.8 42.666667-29.866667 51.2c-17.066667 12.8-42.666667 12.8-59.733333 0-21.333333-8.533333-34.133333-29.866667-34.133334-51.2z m0 0M938.666667 379.733333c0-29.866667-25.6-55.466667-55.466667-55.466666H384c-29.866667 0-55.466667 25.6-55.466667 55.466666v12.8c0 29.866667 25.6 55.466667 55.466667 55.466667h499.2c29.866667 0 55.466667-25.6 55.466667-55.466667v-12.8z m0 0M85.333333 59.733333c0-21.333333 12.8-42.666667 29.866667-51.2 17.066667-12.8 42.666667-12.8 59.733333 0s29.866667 29.866667 29.866667 51.2-12.8 42.666667-29.866667 51.2c-17.066667 12.8-42.666667 12.8-59.733333 0-17.066667-8.533333-29.866667-29.866667-29.866667-51.2z m0 0M938.666667 55.466667c0-29.866667-25.6-55.466667-55.466667-55.466667H384c-29.866667 0-55.466667 25.6-55.466667 55.466667v12.8c0 29.866667 25.6 55.466667 55.466667 55.466666h499.2c29.866667 0 55.466667-25.6 55.466667-55.466666v-12.8z m0 0"  horiz-adv-x="1024" />

    
    <glyph glyph-name="xiazai3" unicode="&#59008;" d="M964.266667 529.066667C938.666667 699.733333 785.066667 827.733333 605.866667 827.733333 409.6 827.733333 247.466667 665.6 247.466667 469.333333v-25.6C119.466667 435.2 17.066667 324.266667 17.066667 187.733333c0-145.066667 110.933333-256 256-256h298.666666L366.933333 145.066667c-8.533333 8.533333-8.533333 25.6 0 34.133333l34.133334 34.133333c8.533333 8.533333 25.6 8.533333 34.133333 0l85.333333-85.333333c8.533333-8.533333 25.6 0 25.6 8.533333V486.4c0 8.533333 17.066667 25.6 25.6 25.6h51.2c17.066667 0 25.6-8.533333 25.6-25.6v-349.866667c0-17.066667 25.6-17.066667 34.133334-8.533333l93.866666 93.866667c8.533333 8.533333 25.6 8.533333 34.133334 0l34.133333-34.133334c8.533333-8.533333 8.533333-25.6 0-34.133333l-204.8-213.333333h324.266667c162.133333 0 290.133333 136.533333 290.133333 298.666666-8.533333 153.6-128 281.6-290.133333 290.133334z"  horiz-adv-x="1280" />

    
    <glyph glyph-name="fenxi3" unicode="&#58892;" d="M836.608 666.624c-52.224 0-95.232-42.496-95.232-94.72 0-26.624 11.264-50.688 28.672-68.096L660.48 369.152c-15.36 11.264-34.816 17.92-55.296 17.92-29.696 0-55.808-13.312-73.728-34.816l-61.44 83.968c24.576 17.408 40.448 45.568 40.448 77.824 0 52.224-42.496 94.72-95.232 94.72S320 566.272 320 514.048c0-5.12 0.512-10.24 1.024-15.36l-93.696-69.632c-17.408 17.92-41.472 29.184-68.608 29.184-52.224 0-95.232-42.496-95.232-94.72s42.496-94.72 95.232-94.72c52.224 0 95.232 42.496 95.232 94.72 0 13.312-2.56 25.6-7.68 36.864l87.552 64.512c16.896-27.648 46.592-45.568 81.408-45.568 7.68 0 15.36 1.024 22.528 2.56l75.776-103.936c-2.56-8.192-3.584-16.896-3.584-26.112 0-52.224 42.496-94.72 95.232-94.72 52.224 0 95.232 42.496 95.232 94.72 0 19.456-5.632 37.376-15.872 52.224l114.688 140.288c11.264-5.12 24.064-7.68 37.376-7.68 52.736 0 95.232 42.496 95.232 94.72 0 52.736-42.496 95.232-95.232 95.232zM159.232 320c-24.064 0-43.52 19.456-43.52 43.52s19.456 43.52 43.52 43.52 43.52-19.456 43.52-43.52S183.296 320 159.232 320z m212.48 194.048c0 24.064 19.456 43.52 43.52 43.52s43.52-19.456 43.52-43.52-19.456-43.52-43.52-43.52-43.52 19.456-43.52 43.52z m233.984-266.24c-24.064 0-43.52 19.456-43.52 43.52s19.456 43.52 43.52 43.52 43.52-19.456 43.52-43.52-19.456-43.52-43.52-43.52z m230.912 280.064c-24.064 0-43.52 19.456-43.52 43.52s19.456 43.52 43.52 43.52 43.52-19.456 43.52-43.52c0.512-24.064-18.944-43.52-43.52-43.52z"  horiz-adv-x="1024" />

    


  </font>
</defs>
</svg>
